<svg fill="none" height="24" viewBox="0 0 24 24" width="24" xmlns="http://www.w3.org/2000/svg"><g fill="#93A5CF"><path d="m15 22.75h-6c-5.43 0-7.75-2.32-7.75-7.75v-6c0-5.43 2.32-7.75 7.75-7.75h6c5.43 0 7.75 2.32 7.75 7.75v6c0 5.43-2.32 7.75-7.75 7.75zm-6-20c-4.61 0-6.25 1.64-6.25 6.25v6c0 4.61 1.64 6.25 6.25 6.25h6c4.61 0 6.25-1.64 6.25-6.25v-6c0-4.61-1.64-6.25-6.25-6.25z"/><path d="m12.0002 14.9098c-.19 0-.38-.07-.53-.22l-3.53004-3.53c-.29-.29-.29-.77 0-1.06.29-.28998.77-.28998 1.06 0l3.00004 3 3-3c.29-.28998.77-.28998 1.06 0 .29.29.29.77 0 1.06l-3.53 3.53c-.15.15-.34.22-.53.22z"/></g></svg>